<svg width="503" height="130" viewBox="0 0 503 130" fill="none" xmlns="http://www.w3.org/2000/svg">
<path d="M101.536 3.68555L65.404 98.4838L29.1816 3.68555H0L49.2206 126.341H80.9941L129.957 3.68555H101.536Z" fill="black"/>
<path d="M184.284 0.49939C148.23 0.49939 123.252 26.5892 123.252 65.0143C123.252 103.439 149.248 129.529 185.961 129.529C204.491 129.529 221.422 125.078 236.355 112.252L223.021 93.2074C212.873 101.259 199.874 106.123 187.56 106.123C170.203 106.123 154.69 96.8976 151.092 74.9109H241.642C241.9 71.8013 242.145 68.3691 242.145 64.924C242.145 26.5892 218.585 0.49939 184.297 0.49939H184.284ZM151.337 54.5242C154.187 36.5761 164.748 24.3183 183.781 24.3183C200.803 24.3183 211.957 35.4794 214.884 54.5242H151.337Z" fill="black"/>
<path d="M319.117 0.498458C306.544 0.498458 291.366 4.18871 281.476 18.7046V3.6855H254.899V126.251H281.734V58.291C281.734 37.3236 296.15 25.9044 313.43 25.9044C330.696 25.9044 341.941 37.401 341.941 58.0329V126.238H368.776V49.2201C368.943 20.5239 348.324 0.472656 319.142 0.472656L319.117 0.498458Z" fill="black"/>
<path d="M453.341 0.498458C440.768 0.498458 425.59 4.18871 415.7 18.7046V3.6855H389.123V126.251H415.958V58.291C415.958 37.3236 430.374 25.9044 447.654 25.9044C464.92 25.9044 476.165 37.401 476.165 58.0329V126.238H503V49.2201C503.09 20.5239 482.458 0.472656 453.366 0.472656L453.341 0.498458Z" fill="black"/>
</svg>
